<svg xmlns="http://www.w3.org/2000/svg" viewBox="0 0 24 24"><path d="M14.3 22c-.6 0-1.2-.2-1.8-.5l-.5-.2-.5.3c-.6.3-1.2.5-1.8.5-2 0-4.1-2.1-5.7-4.9-2.1-3.7-2.6-8-1.2-10.4.9-1.6 2.6-2.4 5-2.4 1.4 0 2.7.2 4 .6h.5c1.3-.4 2.6-.6 3.9-.6 4.8 0 5.8 3.2 5.8 5.8 0 5-3.7 11.8-7.7 11.8zm1.9-19.6c-1.1 0-2.1.1-3.2.3V0h-2v2.7c-1.1-.2-2.1-.3-3.2-.3-3.9 0-5.8 1.8-6.7 3.4C.3 7.1-.1 8.5 0 10c0 2.9.8 5.6 2.3 8.1 2 3.4 5.1 5.9 7.7 5.9.7 0 1.4-.2 2-.5.6.3 1.3.5 2 .5 5.3 0 10.1-8 10-14-.1-4.8-3-7.6-7.8-7.6zm-8.4 4c-1.3-.2-2.5.4-3.3 1.4-.6 1.4-.7 2.9-.3 4.4.1.5.5.8 1 .8h.2c.5-.1.9-.6.8-1.2-.3-1-.3-2 .1-3 .2-.3.9-.4 1.5-.4.5 0 1-.4 1-.9v-.1c0-.5-.4-1-.9-1h-.1z"/></svg>