<svg xmlns="http://www.w3.org/2000/svg" viewBox="0 0 24 24"><path d="M4.063 14c-1.6 0-3 1.3-3 2.9V21c0 1.6 1.3 3 2.9 3h.1c1.6 0 3-1.3 3-2.9V17c0-1.6-1.3-3-2.9-3h-.1zm1 6.9c0 .5-.4 1-.9 1h-.1c-.5 0-1-.4-1-.9v-4.1c0-.5.4-1 .9-1h.1c.5 0 1 .4 1 .9v4.1zM19.963 8c-1.6 0-3 1.3-3 2.9V21c0 1.7 1.3 3 2.9 3.1 1.7 0 3-1.3 3.1-2.9V11.1c0-1.6-1.3-3-2.9-3l-.1-.1zm1 12.9c0 .6-.4 1-1 1s-1-.4-1-1V10.8c0-.6.4-1 1-1s1 .4 1 1v10.1zM12.063 0c-1.6 0-3 1.3-3 2.9v18c0 1.7 1.3 3 2.9 3.1 1.7 0 3-1.3 3.1-2.9V3c0-1.7-1.4-3-3-3zm1 20.9c0 .6-.4 1-1 1s-1-.4-1-1V3c0-.6.4-1 1-1s1 .4 1 1V20.9z"/></svg>