<svg xmlns="http://www.w3.org/2000/svg" xmlns:xlink="http://www.w3.org/1999/xlink" viewBox="0 0 360 360">
    <defs>
        <clipPath id="clip-path">
            <path id="Path_214" data-name="Path 214" class="cls-1" d="M0,56.528H360v-360H0Z" transform="translate(0 303.472)" />
        </clipPath>
        <clipPath id="clip-path-2">
            <path id="Mask" class="cls-2" d="M180,360a181.327,181.327,0,0,1-36.276-3.657A179.013,179.013,0,0,1,79.36,329.258a180.526,180.526,0,0,1-65.215-79.194A179.09,179.09,0,0,1,3.657,216.276a181.754,181.754,0,0,1,0-72.552A179.013,179.013,0,0,1,30.741,79.36a180.526,180.526,0,0,1,79.194-65.215A179.09,179.09,0,0,1,143.723,3.657a181.754,181.754,0,0,1,72.552,0,179.013,179.013,0,0,1,64.363,27.084,180.525,180.525,0,0,1,65.215,79.194,179.09,179.09,0,0,1,10.488,33.788,181.754,181.754,0,0,1,0,72.552,179.013,179.013,0,0,1-27.084,64.363,180.526,180.526,0,0,1-79.195,65.215,179.093,179.093,0,0,1-33.788,10.488A181.329,181.329,0,0,1,180,360Zm0-356.21a177.512,177.512,0,0,0-35.512,3.58A175.244,175.244,0,0,0,81.478,33.883a176.725,176.725,0,0,0-63.842,77.528A175.322,175.322,0,0,0,7.369,144.487a177.927,177.927,0,0,0,0,71.025,175.245,175.245,0,0,0,26.514,63.008,176.725,176.725,0,0,0,77.527,63.842,175.321,175.321,0,0,0,33.076,10.267,177.926,177.926,0,0,0,71.025,0,175.243,175.243,0,0,0,63.008-26.514,176.724,176.724,0,0,0,63.842-77.528,175.319,175.319,0,0,0,10.267-33.077,177.929,177.929,0,0,0,0-71.025,175.246,175.246,0,0,0-26.514-63.008,176.723,176.723,0,0,0-77.527-63.842A175.318,175.318,0,0,0,215.512,7.369,177.513,177.513,0,0,0,180,3.789Z"
                transform="translate(0 0)" />
        </clipPath>
    </defs>
    <g id="Group_1752" data-name="Group 1752" transform="translate(-1420 -279)">
        <g id="Group_1361" data-name="Group 1361" transform="translate(1420 279)">
            <g id="Group_1360" data-name="Group 1360" class="cls-3">
                <g id="Group_1355" data-name="Group 1355" transform="translate(187.178 183.589)">
                    <path id="Path_209" data-name="Path 209" class="cls-4" d="M0,27.4a178.228,178.228,0,0,0,171.008-174.49" transform="translate(0 147.091)"
                    />
                </g>
                <g id="Group_1356" data-name="Group 1356" transform="translate(183.589 1.814)">
                    <path id="Path_210" data-name="Path 210" class="cls-4" d="M27.4,26.852a178.227,178.227,0,0,0-174.49-171.008" transform="translate(147.091 144.156)"
                    />
                </g>
                <g id="Group_1357" data-name="Group 1357" transform="translate(1.815 1.921)">
                    <path id="Path_211" data-name="Path 211" class="cls-4" d="M26.852,0A178.227,178.227,0,0,0-144.156,174.49" transform="translate(144.156)"
                    />
                </g>
                <g id="Group_1358" data-name="Group 1358" transform="translate(1.921 187.177)">
                    <path id="Path_212" data-name="Path 212" class="cls-4" d="M0,0A177.628,177.628,0,0,0,46.044,112.53,177.672,177.672,0,0,0,174.49,171.008"
                    />
                </g>
                <g id="Group_1359" data-name="Group 1359" transform="translate(1.78 1.779)">
                    <path id="Path_213" data-name="Path 213" class="cls-5" d="M55.969,27.985h0M-122.251-150.236h0M-300.472,27.985h0m178.221,178.221h0"
                        transform="translate(300.472 150.236)" />
                </g>
            </g>
        </g>
        <g id="Graph" transform="translate(1420 279)">
            <g id="Graph-2" data-name="Graph" class="cls-6" transform="translate(0 0)">
                <path id="Path_29" data-name="Path 29" class="cls-7" d="M187.787,13.263V176.309L74.118,401.545l39.775,43.717,225.473-37.895L470.1,200.842,352.629,0Z"
                    transform="translate(-3.998 -30.316)" />
                <path id="Path_21" data-name="Path 21" class="cls-7" d="M1,1Z" transform="translate(177.105 -21.842)" />
            </g>
        </g>
        <g id="Input_Form" data-name="Input Form" transform="matrix(-0.848, -0.53, 0.53, -0.848, 1520.797, 634.751)">
            <g id="Next" transform="translate(0 26.804) rotate(-90)">
                <path id="Combined_Shape" data-name="Combined Shape" class="cls-8" d="M16.747,18.952l-13.79-.563A2.537,2.537,0,0,1,.563,16L0,2.206A2.086,2.086,0,0,1,2.206,0,2.538,2.538,0,0,1,4.6,2.394l.47,11.492,11.492.47a2.536,2.536,0,0,1,2.392,2.392,2.083,2.083,0,0,1-2.093,2.206Z"
                    transform="translate(0 13.402) rotate(-45)" />
            </g>
        </g>
    </g>
</svg>