<svg xmlns="http://www.w3.org/2000/svg" viewBox="0 0 24 24"><path d="M9.716 23.321c-1.6 0-2.8-1.3-2.8-2.8s1.3-2.8 2.8-2.8c1.6 0 2.8 1.3 2.8 2.8 0 1.5-1.3 2.8-2.8 2.8zm0-4.2c-.8 0-1.4.6-1.4 1.4 0 .8.6 1.4 1.4 1.5s1.4-.6 1.5-1.4v-.1c-.1-.8-.8-1.4-1.5-1.4zM17.816 23.321c-1.6 0-2.8-1.3-2.8-2.8 0-1.6 1.3-2.8 2.8-2.8 1.6 0 2.8 1.3 2.8 2.8.1 1.5-1.2 2.8-2.8 2.8zm0-4.2c-.8 0-1.4.6-1.4 1.4 0 .8.6 1.4 1.4 1.5.8 0 1.4-.6 1.5-1.4v-.1c0-.8-.7-1.4-1.5-1.4zM20.916 15.321h-13.3c-.3 0-.6-.2-.7-.5l-3.1-12.6h-3c-.4 0-.7-.3-.7-.7 0-.4.3-.7.7-.7h3.7c.3 0 .6.2.7.5l.8 3.4h17.4c.2 0 .5.1.6.3.1.2.2.4.1.6l-2.3 9.1c-.2.3-.5.6-.9.6zm-12.8-1.5h12.3l1.9-7.7h-16.1l1.9 7.7z"/></svg>