<svg xmlns="http://www.w3.org/2000/svg" viewBox="0 0 24 24"><path d="M17.7 4.5L16.3 6c1.1 1.2 1.7 2.7 1.7 4.3 0 1.6-.6 3.1-1.8 4.2l1.4 1.4c1.5-1.5 2.3-3.6 2.3-5.7.1-2.1-.7-4.2-2.2-5.7zm-11.4 0C4.8 6.1 4 8.1 4 10.2s.8 4.2 2.3 5.7l1.4-1.4C6.6 13.4 6 11.8 6 10.2c0-1.5.6-3.1 1.8-4.2L6.3 4.5zm14.2-2.7l-1.4 1.4C21 5 22 7.6 22 10.3c0 2.7-1 5.2-2.9 7.1l1.4 1.4c2.3-2.2 3.5-5.3 3.5-8.5S22.8 4 20.5 1.8zM4.9 3.2L3.5 1.8C1.2 4 0 7.1 0 10.2c0 3.2 1.2 6.3 3.5 8.5l1.4-1.4C1 13.4 1 7.1 4.9 3.2zM12 6.3c-2.2 0-4 1.8-4 4 0 1.8 1.2 3.4 3 3.9v8.1h2v-8.1c2.1-.6 3.4-2.8 2.9-4.9-.5-1.8-2.1-3-3.9-3zm0 6c-1.1 0-2-.9-2-2s.9-2 2-2 2 .9 2 2-.9 1.9-2 2z"/></svg>