<svg xmlns="http://www.w3.org/2000/svg" viewBox="0 0 256 48">
    <path
        d="M200.4 48h-.1c-10-.1-17.3-7.4-17.6-7.7-.6-.6-.6-1.7 0-2.3.6-.6 1.7-.6 2.3 0 .1.1 6.7 6.7 15.3 6.7 5.1 0 10-2.2 14.5-6.8.6-.6 1.7-.6 2.3 0 .6.6.6 1.7 0 2.3-5.1 5.2-10.7 7.8-16.7 7.8zM16 22.4c-1.3-1.2-3.4-2-6.4-2.4-2.3-.3-3.9-.8-4.9-1.5-1-.7-1.5-1.6-1.5-2.7s.5-2 1.5-2.8c1-.7 2.4-1.1 4.1-1.1 2.6 0 4.6.9 6 2.7.3.4.6.5 1.1.5.1 0 .4-.1.6-.2.4-.3.7-.6.7-1 0-.3-.1-.5-.3-.7-1.8-2.5-4.5-3.8-8-3.8-2.4 0-4.4.6-5.9 1.7S.7 13.8.7 15.9c0 1.5.7 2.9 2.1 4C4.2 21 6.2 21.7 9 22.1c4.3.6 6.4 2 6.4 4.3 0 1.2-.5 2.2-1.6 3-1.1.8-2.7 1.2-4.9 1.2-3.1 0-5.4-.9-6.8-2.6-.3-.3-.6-.5-1-.5-.3 0-.5.1-.7.2-.4.3-.5.6-.5 1 0 .3.1.5.3.8 1 1.2 2.3 2.1 3.8 2.6 1.5.6 3.1.9 4.8.9 1.6 0 3.1-.3 4.5-.8s2.5-1.3 3.3-2.3c.8-1 1.2-2.1 1.2-3.4.2-1.5-.5-2.9-1.8-4.1zm38.9-8.1c.7 1.5 1.1 3.2 1.1 5.1v12.2c0 .4-.1.7-.3.9-.2.2-.5.4-.9.4s-.7-.1-.9-.4c-.2-.2-.4-.5-.4-.9V19.5c0-2.2-.6-3.9-1.7-5.3-1.2-1.4-2.6-2.1-4.4-2.1-2 0-3.6.6-4.8 1.9-1.2 1.3-1.8 3-1.7 5.1v12.5c0 .4-.1.7-.3.9-.2.2-.5.4-.9.4s-.7-.1-.9-.4c-.2-.2-.4-.5-.4-.9V19.5c0-2.2-.6-3.9-1.7-5.3-1.2-1.4-2.6-2.1-4.4-2.1-1.9 0-3.5.6-4.8 1.9-1.2 1.2-1.9 2.8-1.9 4.8v12.9c0 .4-.1.7-.3.9-.2.2-.5.4-.9.4s-.7-.1-.9-.4c-.3-.3-.5-.6-.5-1V11.1c0-.4.1-.7.4-.9.2-.2.5-.3.9-.3s.7.1.9.3c.2.2.3.5.3.9v1.6c.8-1 1.8-1.8 2.9-2.4 1.2-.6 2.4-.8 3.7-.8 1.6 0 3.1.4 4.4 1.2 1.3.8 2.3 1.9 3.1 3.3.8-1.4 1.8-2.5 3.2-3.3 1.3-.8 2.9-1.2 4.6-1.2 1.7 0 3.2.4 4.5 1.3 1.3.9 2.3 2 3 3.5zm24.2-3.2c-1.8-1-3.8-1.5-6-1.5s-4.2.5-6 1.5c-1.8 1-3.2 2.4-4.2 4.2-1 1.8-1.5 3.8-1.5 6s.5 4.2 1.5 6c1 1.8 2.4 3.2 4.2 4.2 1.8 1 3.8 1.5 6 1.5 2 0 3.8-.4 5.4-1.3 1.6-.9 2.9-2 3.8-3.5v3.3c0 .4.1.7.4.9.2.2.5.4.9.4s.7-.1.9-.4c.2-.2.3-.5.3-.9V21.4c0-2.2-.5-4.2-1.5-6-1-1.8-2.4-3.2-4.2-4.3zm2.1 15.1c-.8 1.4-1.9 2.6-3.3 3.4-1.4.8-3 1.2-4.7 1.2-1.7 0-3.3-.4-4.7-1.2-1.4-.8-2.5-1.9-3.3-3.4-.8-1.4-1.2-3-1.2-4.8 0-1.8.4-3.4 1.2-4.8.8-1.4 1.9-2.6 3.3-3.4 1.4-.8 3-1.2 4.7-1.2 1.7 0 3.3.4 4.7 1.2 1.4.8 2.5 2 3.3 3.4.8 1.4 1.2 3 1.2 4.8 0 1.8-.4 3.4-1.2 4.8zM103.6 11v.3c-.1.3-.2.5-.4.7-.2.1-.4.2-.7.2-.3 0-.6 0-1-.1s-.8-.1-1-.1c-1.4 0-2.7.3-3.8.9-1.1.6-2 1.4-2.6 2.4-.6 1-.9 2.2-.9 3.5v12.8c0 .4-.1.7-.3.9-.2.2-.5.4-.9.4s-.7-.1-.9-.4c-.2-.2-.4-.5-.4-.9V11.1c0-.4.1-.7.4-.9.2-.2.5-.3.9-.3s.7.1.9.3c.2.2.3.5.3.9v2.6c.8-1.3 1.9-2.3 3.1-3 1.3-.7 2.6-1.1 4.1-1.1 2.1 0 3.2.5 3.2 1.4zm16.3 19.7c.2.2.4.6.4.9 0 .4-.1.7-.4.9-.2.2-.6.4-.9.4h-1c-1.5 0-2.9-.4-4.1-1.1-1.2-.7-2.1-1.7-2.8-2.9-.7-1.2-1-2.6-1-4.2V13h-3.3c-.3 0-.6-.1-.8-.3-.2-.2-.3-.5-.3-.8 0-.3.1-.6.3-.8.2-.2.5-.3.8-.3h3.3v-7c0-.4.1-.7.4-.9.2-.2.5-.4.9-.4s.7.1.9.4c.2.2.4.6.4.9v6.9h5.6c.3 0 .6.1.8.3.2.2.3.5.3.8 0 .3-.1.6-.3.8-.2.2-.5.3-.8.3h-5.6v11.8c0 1.6.5 3 1.5 4s2.3 1.5 3.9 1.5h.9c.3.1.6.3.9.5zm23.6-19.8c.2.3.3.6.3 1 0 .3-.1.5-.2.8l-8.9 18.8c-.4.9-1.1 1.4-1.9 1.4-.5 0-.9-.1-1.2-.3-.3-.2-.6-.6-.8-1.1l-8.9-18.8c-.1-.2-.2-.5-.2-.8 0-.8.4-1.3 1.2-1.7.3-.1.5-.2.9-.2s.7.1 1 .3c.3.2.5.4.7.8l7.3 15.8 7.2-15.8c.2-.3.4-.6.7-.8.3-.2.7-.3 1-.3.4 0 .7.1 1 .2.3.1.6.4.8.7zm8.4-9.5c.5.5.8 1.2.8 2s-.3 1.4-.8 2c-.5.5-1.2.8-2 .8s-1.4-.3-2-.8c-.5-.5-.8-1.2-.8-2s.3-1.4.8-2c.5-.5 1.2-.8 2-.8.8-.1 1.5.2 2 .8zm-.4 9c.4.4.6.9.6 1.6v18.8c0 .6-.2 1.1-.6 1.5s-.9.6-1.6.6c-.6 0-1.1-.2-1.5-.6-.4-.4-.6-.9-.6-1.5V12c0-.6.2-1.2.6-1.6.4-.4.9-.6 1.5-.6.7.1 1.2.3 1.6.6zm19.1 18.9c.4.4.5.9.5 1.5s-.2 1.1-.7 1.5c-.5.4-1.1.6-1.8.6h-.8c-1.4 0-2.6-.4-3.8-1.1-1.1-.7-2-1.7-2.7-2.9-.6-1.2-1-2.6-1-4.2V14.3h-1.9c-.6 0-1.1-.2-1.4-.5-.4-.3-.5-.8-.5-1.3 0-.6.2-1 .5-1.3.4-.3.8-.5 1.4-.5h1.9V4.6c0-.6.2-1.1.6-1.5.4-.4.9-.6 1.5-.6s1.1.2 1.5.6c.4.4.6.9.6 1.5v6.1h3.6c.6 0 1.1.2 1.4.5.4.3.5.8.5 1.3s-.2.9-.5 1.3c-.4.3-.8.5-1.4.5h-3.6v10.4c0 1.1.3 2.1.9 2.8.6.8 1.4 1.1 2.3 1.1h1.4c.8.1 1.2.3 1.5.7zm21.6-18.1c-1.8-1-3.7-1.5-5.9-1.5s-4.1.5-5.9 1.5c-1.8 1-3.2 2.4-4.2 4.2-1 1.8-1.5 3.8-1.5 6s.5 4.2 1.4 6c.9 1.8 2.2 3.2 3.9 4.2 1.6 1 3.5 1.5 5.5 1.5 1.6 0 3.1-.3 4.6-1 1.4-.7 2.6-1.6 3.6-2.8v1.6c0 .6.2 1.1.6 1.5.4.4.9.6 1.5.6s1.1-.2 1.5-.6c.4-.4.6-.9.6-1.5v-9.4c0-2.2-.5-4.2-1.5-6-1.1-1.8-2.5-3.2-4.2-4.3zm.6 14.2c-.6 1.2-1.5 2.1-2.7 2.8-1.1.7-2.4 1-3.8 1s-2.7-.3-3.8-1c-1.1-.7-2-1.6-2.7-2.8-.7-1.2-1-2.5-1-4s.3-2.8 1-4c.7-1.2 1.6-2.2 2.7-2.8 1.1-.7 2.4-1 3.8-1s2.7.3 3.8 1c1.1.7 2 1.6 2.7 2.8.6 1.2 1 2.6 1 4-.1 1.5-.4 2.8-1 4zM220 11.2c-1.8-1-3.7-1.5-5.9-1.5s-4.1.5-5.9 1.5c-1.8 1-3.2 2.4-4.2 4.2-1 1.8-1.5 3.8-1.5 6s.5 4.2 1.4 6c.9 1.8 2.2 3.2 3.9 4.2 1.6 1 3.5 1.5 5.5 1.5 1.6 0 3.1-.3 4.6-1 1.4-.7 2.6-1.6 3.6-2.8v1.6c0 .6.2 1.1.6 1.5.4.4.9.6 1.5.6s1.1-.2 1.5-.6c.4-.4.6-.9.6-1.5v-9.4c0-2.2-.5-4.2-1.5-6-1-1.8-2.4-3.2-4.2-4.3zm.6 14.2c-.6 1.2-1.5 2.1-2.7 2.8-1.1.7-2.4 1-3.8 1s-2.7-.3-3.8-1c-1.1-.7-2-1.6-2.7-2.8-.7-1.2-1-2.5-1-4s.3-2.8 1-4c.7-1.2 1.6-2.2 2.7-2.8 1.1-.7 2.4-1 3.8-1s2.7.3 3.8 1c1.1.7 2 1.6 2.7 2.8.6 1.2 1 2.6 1 4 0 1.5-.3 2.8-1 4zm19.4 5.4c0 .6-.3 1.1-.8 1.5-.5.4-1.2.6-2.1.6h-.1c-1.2 0-2.3-.3-3.3-1s-1.7-1.6-2.3-2.8c-.5-1.2-.8-2.5-.8-4v-23c0-.6.2-1.1.6-1.5.4-.4.9-.6 1.5-.6s1.1.2 1.5.6c.4.4.6.9.6 1.5v23c0 1 .2 1.9.6 2.6.4.7.9 1 1.5 1h1.1c.6 0 1 .2 1.4.6.4.4.6.9.6 1.5z"
        fill="#fff"/>
</svg>
