<svg xmlns="http://www.w3.org/2000/svg" viewBox="0 0 32.5 32.5"><path d="M16.422 9.963h-2.6c-.7 0-1.1.1-1.6.3-.4.2-.8.4-1.1.7-.4.4-.6.7-.7 1.1-.2.4-.3.9-.3 1.6v5.2c0 .7.1 1.1.3 1.6.2.4.4.8.7 1.1.4.4.7.6 1.1.7.4.2.9.3 1.6.3h5.2c.7 0 1.1-.1 1.6-.3.4-.2.8-.4 1.1-.7.4-.4.6-.7.7-1.1.2-.4.3-.9.3-1.6v-2.6-2.6c0-.7-.1-1.1-.3-1.6-.2-.4-.4-.8-.7-1.1-.4-.4-.7-.6-1.1-.7-.4-.2-.9-.3-1.6-.3h-2.6zm0 1.2h2.6c.6 0 1 .1 1.2.2.3.1.5.3.7.5s.4.4.5.7c.1.2.2.6.2 1.2v5.2c0 .6-.1 1-.2 1.2-.1.3-.3.5-.5.7-.2.2-.4.4-.7.5-.2.1-.6.2-1.2.2h-5.2c-.6 0-1-.1-1.2-.2-.3-.1-.5-.3-.7-.5s-.4-.4-.5-.7c-.1-.2-.2-.6-.2-1.2v-2.6-2.6c0-.6.1-1 .2-1.2.1-.3.3-.5.5-.7s.4-.4.7-.5c.2-.1.6-.2 1.2-.2h2.6zm0 1.9c-1.8 0-3.3 1.5-3.3 3.3 0 1.8 1.5 3.3 3.3 3.3s3.3-1.5 3.3-3.3c0-1.8-1.5-3.3-3.3-3.3zm0 5.5c-1.2 0-2.1-1-2.1-2.1 0-1.2 1-2.1 2.1-2.1 1.2 0 2.1 1 2.1 2.1s-.9 2.1-2.1 2.1zm4.2-5.6c0 .4-.3.8-.8.8s-.8-.3-.8-.8c0-.4.3-.8.8-.8.4.1.8.4.8.8z"/><path d="M16.3 32.5C7.3 32.5 0 25.2 0 16.2S7.3 0 16.3 0s16.2 7.3 16.2 16.3c0 8.9-7.3 16.2-16.2 16.2zm0-31.2C8 1.3 1.3 8 1.3 16.2c0 8.3 6.7 15 14.9 15 8.3 0 15-6.7 15-14.9 0-8.3-6.7-15-14.9-15z"/></svg>