<svg xmlns="http://www.w3.org/2000/svg" viewBox="0 0 24 24"><path d="M17.783 9.324c-.4.2-.8.3-1.3.3.5-.3.8-.7 1-1.2-.4.2-.9.4-1.4.5-.4-.4-1-.7-1.6-.7-1.2 0-2.2 1-2.2 2.2 0 .2 0 .3.1.5-1.8-.1-3.5-1-4.6-2.3-.2.3-.3.7-.3 1.1 0 .8.4 1.4 1 1.8-.4 0-.7-.1-1-.3 0 1.1.8 2 1.8 2.2-.2 0-.4.1-.6.1h-.4c.3.9 1.1 1.5 2.1 1.5-.8.6-1.7.9-2.7.9h-.5c1 .6 2.1 1 3.4 1 4.1 0 6.3-3.4 6.3-6.3v-.3c.2-.2.6-.6.9-1z"/><path d="M12 0C5.4 0 0 5.4 0 12s5.4 12 12 12 12-5.4 12-12S18.6 0 12 0zm0 23C5.9 23 1 18.1 1 12S5.9 1 12 1s11 4.9 11 11-4.9 11-11 11z"/></svg>