<svg xmlns="http://www.w3.org/2000/svg" viewBox="0 0 24 24"><path d="M11.961.024c-6.6 0-12 5.4-12 12s5.4 12 12 12 12-5.4 12-12-5.3-12-12-12zm0 23c-6.1 0-11-4.9-11-11s4.9-11 11-11 11 4.9 11 11-4.9 11-11 11z"/><path d="M15.861 8.324h-7.2c-.8 0-1.5.7-1.5 1.5v4.4c0 .8.7 1.5 1.5 1.5h7.2c.8 0 1.5-.7 1.5-1.5v-4.4c0-.8-.7-1.5-1.5-1.5zm-.8 3.7c0 .1 0 .2-.1.3-.1.1-.2.2-.4.3l-3.2 1.7h-.2c-.2 0-.4-.1-.5-.3 0-.1-.1-.2-.1-.3v-3.6c0-.1 0-.2.1-.3.1-.2.4-.3.7-.2 0 0 2.9 1.5 3.2 1.7.1.1.3.2.4.3.1.1.1.2.1.4z"/></svg>