<svg xmlns="http://www.w3.org/2000/svg" viewBox="0 0 24 24"><path d="M16 4c0-2.2-1.8-4-4-4S8 1.8 8 4s1.8 4 4 4 4-1.8 4-4zm-4 2c-1.1 0-2-.9-2-2s.9-2 2-2 2 .9 2 2-.9 2-2 2zm-1.7 4.1c-.4-.1-.8 0-1.1.3L6.5 14H2v2h5c.3 0 .6-.1.8-.4L9 14v4H5c-1.7 0-3 1.3-3 3s1.3 3 3 3h6v-2H5c-.6 0-1-.4-1-1s.4-1 1-1h4c1.1 0 2-.9 2-2v-7c0-.4-.3-.8-.7-.9zm5.9 5.5c.2.3.5.4.8.4h5v-2h-4.5l-2.7-3.6c-.3-.3-.7-.5-1.1-.3-.4.1-.7.5-.7.9v7c0 1.1.9 2 2 2h4c.6 0 1 .4 1 1s-.4 1-1 1h-6v2h6c1.7 0 3-1.3 3-3s-1.3-3-3-3h-4v-4l1.2 1.6z"/></svg>