<svg xmlns="http://www.w3.org/2000/svg" viewBox="0 0 24 24"><path d="M17.8 1.4L16.4 0l-3 3 1.4 1.4 3-3zm3.5 6.7C20.2 6 18 4.7 15.6 4.8h-3L7.7 0 6.2 1.4l3.3 3.3h-1C6.2 4.7 3.9 6 2.7 8.1c-1.2 2-1.1 4.6.1 6.6L6.6 21c1.1 1.9 3.2 3.1 5.5 3 2.2 0 4.3-1.1 5.5-3l3.7-6.3c1.1-2 1.2-4.5 0-6.6zm-1.8 5.6L15.8 20c-.8 1.3-2.2 2.1-3.6 2-1.5 0-2.9-.8-3.6-2l-3.8-6.3c-1-1.3-1-3.1-.2-4.6.8-1.5 2.4-2.3 4.1-2.3h6.9c1.7 0 3.2.9 4 2.3.7 1.4.7 3.2-.1 4.6zM9 9.8H7v3h2v-3zm0 8.1h2v-3H9v3zm4-8.1h-2v3h2v-3zm2.1 3.1h2v-3h-2v3zm-2.1 5h2v-3h-2v3z"/></svg>