<svg xmlns="http://www.w3.org/2000/svg" viewBox="0 0 24 24"><path d="M24 4c-.1-1.6-1.4-2.9-3-3h-2c-.5 0-1 .4-1 .9V2c0 .5.4 1 .9 1h2c.6 0 1 .5 1 1.1 0 .3-.1.6-.3.8L15 13.4 8.2 4.9c-.1-.2-.2-.5-.2-.8 0-.5.4-1 1-1.1h2c.5 0 1-.4 1-.9V2c0-.5-.4-1-.9-1H9C7.4 1 6 2.4 6 4c0 .8.2 1.6.7 2.2l7.3 9.3V19c0 1.1-.9 2-2 2s-2-.9-2-2v-4.5c0-1.4-1.1-2.5-2.5-2.5H5.8c-.4-1.2-1.5-2-2.8-2-1.7 0-3 1.3-3 3s1.3 3 3 3c1.3 0 2.4-.8 2.8-2h1.7c.3 0 .5.2.5.5V19c0 2.2 1.9 4 4.1 3.9 2.1 0 3.9-1.8 3.9-3.9v-3.7l7.3-9.2c.5-.6.7-1.3.7-2.1zM3 14c-.6 0-1-.4-1-1s.4-1 1-1 1 .4 1 1-.4 1-1 1z"/></svg>