<svg xmlns="http://www.w3.org/2000/svg" viewBox="0 0 24 24"><path d="M12 18.1c-3.4 0-6.2-2.8-6.2-6.2 0-3.4 2.8-6.2 6.2-6.2 3.4 0 6.2 2.8 6.2 6.2 0 3.5-2.8 6.2-6.2 6.2zm0-10.6c-2.5 0-4.5 2-4.5 4.5s2 4.5 4.5 4.5 4.5-2 4.5-4.5-2-4.5-4.5-4.5zM19.9 20.7c-.2 0-.4-.1-.6-.2l-2.2-2.2c-.3-.3-.3-.8 0-1.2.3-.3.8-.3 1.2 0l2.2 2.2c.3.3.3.8 0 1.2-.2.1-.4.2-.6.2zM6.3 7.1c-.2 0-.4-.1-.6-.2L3.5 4.7c-.3-.3-.3-.8 0-1.2.3-.3.8-.3 1.2 0l2.2 2.2c.3.3.3.8 0 1.2-.2.1-.4.2-.6.2zM17.7 7.1c-.2 0-.4-.1-.6-.2-.3-.3-.3-.8 0-1.2l2.2-2.2c.3-.3.8-.3 1.2 0 .3.3.3.8 0 1.2l-2.2 2.2c-.2.1-.4.2-.6.2zM4.1 20.7c-.2 0-.4-.1-.6-.2-.3-.3-.3-.8 0-1.2l2.2-2.2c.3-.3.8-.3 1.2 0 .3.3.3.8 0 1.2l-2.2 2.2c-.1.1-.4.2-.6.2zM23.1 12.8H20c-.5 0-.8-.3-.9-.8 0-.5.3-.8.8-.9h3.2c.5 0 .8.3.9.8 0 .5-.3.9-.9.9.1 0 .1 0 0 0zM4 12.8H.9c-.5 0-.8-.3-.9-.8 0-.5.3-.8.8-.9H4c.5 0 .8.3.9.8-.1.5-.4.9-.9.9zM12 4.8c-.5 0-.8-.4-.8-.8V.9c0-.5.4-.8.9-.8.4 0 .8.4.8.8V4c-.1.4-.4.8-.9.8zM12 23.9c-.5 0-.8-.4-.8-.8V20c0-.5.3-.8.8-.9.5 0 .8.3.9.8v3.2c-.1.5-.4.8-.9.8z"/></svg>