<svg xmlns="http://www.w3.org/2000/svg" viewBox="0 0 24 24"><path d="M20 11c-2.2 0-4 1.8-4 4 0 .8.2 1.6.7 2.2-1 .9-2.3 1.5-3.7 1.7v-7c1-.2 1.8-.7 2.5-1.4 2-1.9 2-5 .1-7l-.1-.1L12 0 8.5 3.5c-2 1.9-2 5-.1 7l.1.1c.7.7 1.6 1.2 2.5 1.4v7c-1.4-.2-2.7-.8-3.7-1.7.5-.7.7-1.5.7-2.3 0-2.2-1.8-4-4-4H0v4c0 2.2 1.8 4 4 4 .6 0 1.3-.2 1.8-.5 1.4 1.3 3.2 2.2 5.2 2.4V24h2v-3.1c1.9-.2 3.8-1.1 5.2-2.4.5.3 1.2.5 1.8.5 2.2 0 4-1.8 4-4v-4h-4zM4 17c-1.1 0-2-.9-2-2v-2h2c1.1 0 2 .8 2.1 1.9 0 1.1-.8 2-1.9 2.1H4zM9.9 4.9L12 2.8l2.1 2.1c1.2 1.1 1.2 2.9.1 4.1l-.1.1c-.5.6-1.3.9-2.1.9s-1.6-.3-2.1-.9C8.7 8 8.7 6.2 9.9 4.9c-.1.1 0 0 0 0zM22 15c0 1.1-.9 2-2 2s-2-.8-2.1-1.9c0-1.1.8-2 1.9-2.1h2.1v2z"/></svg>